<svg xmlns="http://www.w3.org/2000/svg" viewBox="0 0 32 32" fill="#ffffff" aria-hidden="true">
  <path d="M2.6 28.8 9.8 26.6 12.6 22.4 10.8 20.6 4.8 26.2 2.4 28Z"/>
  <path d="M10.2 16.8 13.4 19.8 14.8 19 12.1 16.2Z"/>
  <path d="M8.2 16.2 27.8 10.4 29 12.2 9.4 18Z"/>
  <circle cx="7" cy="16.2" r="1.25"/>
  <path fill-rule="evenodd" clip-rule="evenodd" d="M17.20,14.00 A6.8,6.8 0 1 1 17.18,14.00 Z M17.20,19.45 A1.35,1.35 0 1 0 17.22,19.45 Z M17.15,19.45 L17.25,19.45 L17.44,14.00 L16.96,14.00 Z M17.83,19.61 L17.92,19.66 L20.80,15.03 L20.39,14.80 Z M18.34,20.08 L18.39,20.17 L23.20,17.61 L22.97,17.20 Z M18.55,20.75 L18.55,20.85 L24.00,21.04 L24.00,20.56 Z M18.39,21.43 L18.34,21.52 L22.97,24.40 L23.20,23.99 Z M17.92,21.94 L17.83,21.99 L20.39,26.80 L20.80,26.57 Z M17.25,22.15 L17.15,22.15 L16.96,27.60 L17.44,27.60 Z M16.57,21.99 L16.48,21.94 L13.60,26.57 L14.01,26.80 Z M16.06,21.52 L16.01,21.43 L11.20,23.99 L11.43,24.40 Z M15.85,20.85 L15.85,20.75 L10.40,20.56 L10.40,21.04 Z M16.01,20.17 L16.06,20.08 L11.43,17.20 L11.20,17.61 Z M16.48,19.66 L16.57,19.61 L14.01,14.80 L13.60,15.03 Z"/>
</svg>
